<?xml version="1.0" encoding="utf-8"?>
<!-- Generator: Adobe Illustrator 16.0.0, SVG Export Plug-In . SVG Version: 6.00 Build 0)  -->
<!DOCTYPE svg PUBLIC "-//W3C//DTD SVG 1.1//EN" "http://www.w3.org/Graphics/SVG/1.1/DTD/svg11.dtd">
<svg version="1.1" id="Layer_1" xmlns="http://www.w3.org/2000/svg" xmlns:xlink="http://www.w3.org/1999/xlink" x="0px" y="0px"
	 width="596.568px" height="596.578px" viewBox="-0.643 122.656 596.568 596.578"
	 enable-background="new -0.643 122.656 596.568 596.578" xml:space="preserve">
<g>
	<path fill="#ED5822" d="M158.847,508.654l32.123,4.521l66.661-35.219l93.99-152.785l242.16,131.666
		c0.079-2.613,2.144-33.26,2.144-35.902c0-164.727-133.55-298.279-298.289-298.279c-164.749,0-298.279,133.553-298.279,298.279
		c0,164.744,133.53,298.299,298.279,298.299c25.321,0,49.889-3.164,73.354-9.1c-21.638-17.273-39.787-31.641-40.848-31.65
		L158.847,508.654z"/>
	<path fill="#DB4A1D" d="M581.298,446.726L315.519,217.22L203.164,521.98l-67.247-12.26L330.14,678.484
		c1.061,0.01,19.21,14.381,40.848,31.65c118.01-29.838,208.016-130,222.804-253.295"/>
	<g>
		<path fill="#FFFFFF" d="M207.37,469.101l-61.572,33.584c-3.615,1.977-6.858,4.393-9.88,7.035
			c35.892,30.266,82.232,48.531,132.867,48.531c50.262,0,96.309-17.986,132.105-47.848c-3.306-2.785-6.888-5.295-10.857-7.27
			l-65.936-32.969c-8.509-4.258-13.904-12.961-13.904-22.484V421.81c1.857-2.108,3.98-4.818,6.24-8.019
			c8.991-12.696,15.786-26.659,20.498-41.303c8.46-2.611,14.689-10.421,14.689-19.704v-27.612c0-6.075-2.701-11.502-6.897-15.305
			v-39.915c0,0,8.2-62.119-75.929-62.119c-84.124,0-75.928,62.119-75.928,62.119v39.915c-4.206,3.803-6.898,9.229-6.898,15.305
			v27.612c0,7.271,3.823,13.673,9.547,17.375c6.897,30.032,24.964,51.65,24.964,51.65v25.231
			C220.478,456.234,215.447,464.697,207.37,469.101z"/>
		<g>
			<circle fill="#B5B5B4" cx="428.425" cy="495.953" r="93.448"/>
			<path fill="#DB4A1D" d="M475.148,488.167h-38.932V449.23c0-4.299-3.488-7.789-7.792-7.789c-4.305,0-7.783,3.49-7.783,7.789
				v38.938H381.7c-4.304,0-7.787,3.488-7.787,7.785c0,4.301,3.483,7.789,7.787,7.789h38.941v38.936c0,4.299,3.479,7.787,7.783,7.787
				c4.304,0,7.792-3.488,7.792-7.787v-38.936h38.932c4.3,0,7.783-3.488,7.783-7.789
				C482.931,491.656,479.448,488.167,475.148,488.167z"/>
		</g>
	</g>
</g>
</svg>
