<?xml version="1.0" encoding="UTF-8" standalone="no"?>
<!-- Generator: Adobe Illustrator 19.1.0, SVG Export Plug-In . SVG Version: 6.00 Build 0)  -->
<svg id="Layer_1" style="enable-background:new -97 220.9 400 400" xmlns="http://www.w3.org/2000/svg" xml:space="preserve" height="400px" viewBox="-97 220.9 400 400" width="400px" version="1.1" y="0px" x="0px" xmlns:xlink="http://www.w3.org/1999/xlink">
<style type="text/css">
	.st0{fill:#E95420;}
</style>
	<path class="st0" d="m103 220.9c-110.3 0-200 89.7-200 200s89.7 200 200 200 200-89.7 200-200-89.7-200-200-200zm0 325c-64.6 0-117.9-49.3-124.4-112.2v-0.1h-36.8c-5.1 0-9.6-3-11.5-7.7s-0.9-10.1 2.7-13.6l61.2-61.3c4.9-4.9 12.8-4.9 17.7 0l60.6 60.6c2.6 2.3 4.3 5.7 4.3 9.5 0 6.9-5.6 12.5-12.5 12.5h-35.2c6 35.4 36.9 62.4 73.9 62.4 41.4 0 75-33.6 75-75 0-41.3-33.6-75-75-75-13.8 0-25-11.2-25-25s11.2-25 25-25c68.9 0 125 56.1 125 125 0 68.8-56.1 124.9-125 124.9z"/>
</svg>
